<?xml version="1.0" encoding="utf-8"?>
<!-- Generator: Adobe Illustrator 22.1.0, SVG Export Plug-In . SVG Version: 6.00 Build 0)  -->
<svg version="1.1" id="Capa_1" xmlns="http://www.w3.org/2000/svg" xmlns:xlink="http://www.w3.org/1999/xlink" x="0px" y="0px"
	 viewBox="0 0 1366 380" style="enable-background:new 0 0 1366 380;" xml:space="preserve">
<style type="text/css">
	.st0{fill:#19CCC7;}
	.st1{fill:#19CCC7;stroke:#19CCC7;stroke-width:4.0731;stroke-miterlimit:10;}
</style>
<g>
	<g>
		<g>
			<g>
				<g>
					<g>
						<path class="st0" d="M1.2,247c9,0,17.7-2.9,25.4-7.4c5.7-3.4,10.9-7.8,15.5-12.7c4.8-5.1,8.8-10.7,14.2-15.2
							c6-4.9,13.5-8.7,21.4-7.2c7.2,1.4,13.4,5.7,18.5,10.8c1.7,1.7,3.3,3.6,4.9,5.4c1.2,1.3,0,0,0.5,0.5c0.4,0.5,0.9,1,1.3,1.6
							c4.3,5,9,9.6,14.3,13.5c15.6,11.5,34.9,14,52.3,5.2c5.6-2.8,10.7-6.7,15.3-10.9c5.4-5.1,9.7-11.2,15.1-16.3
							c5.3-5.1,12.2-9.8,19.7-10.1c7.1-0.3,13.9,3.3,19.2,7.7c2.9,2.4,5.5,5.1,7.9,8c0.5,0.5,0.9,1.1,1.4,1.6
							c-0.9-1,0.4,0.4,0.6,0.7c4.5,5.2,9.3,10,14.8,14.1c9,6.6,19.7,10.7,30.9,10.7c3.1,0,3.2-4.9,0-4.9c-10.6,0-20.4-4-28.8-10.4
							c-9.2-6.9-13.9-15-22.1-22.3c-9-8-20.9-12.9-32.7-8.3c-13.2,5.1-20.1,17.4-30.1,26.5c-16.5,15.1-38.1,19.2-57.4,6.9
							c-17.2-10.9-29.9-40.1-54.5-34.7c-15.6,3.4-23.5,17.9-34.4,27.8c-9.1,8.3-20.6,14.5-33.2,14.5C-2,242.1-2,247,1.2,247L1.2,247
							z"/>
					</g>
				</g>
				<g>
					<g>
						<path class="st0" d="M294.2,222.4c-11.9,0-21.2-9.7-27.9-17.5c-7.7-8.9-16.4-16.9-27.4-21.5c-18.2-7.6-36.9-2.9-51.9,9.4
							c-11,9-18.3,23.6-32.4,28.4c-14,4.7-25.8-5.9-34.3-15.7c-12.1-14.1-29.6-27.7-50.1-25.8c-11.3,1.1-21.6,6.4-30.2,13.6
							c-12.1,10.2-20.9,28.3-38.6,29.1c-3.1,0.2-3.1,5,0,4.9c12.7-0.6,22.5-9.2,30.3-18.5c8.4-10.1,18.6-19.2,31.5-22.8
							c21.5-6,40.7,8,53.3,22.7c7.3,8.4,16,16.7,27.5,18.4c12.4,1.8,23.4-6.3,31.3-15c9.2-10.1,17.9-20.3,31.1-25.1
							c8.3-3,17-3.2,25.5-0.7c12.8,3.7,23.4,13.6,31.1,22.6c8,9.3,18,18.6,31.1,18.6C297.3,227.3,297.3,222.4,294.2,222.4
							L294.2,222.4z"/>
					</g>
				</g>
			</g>
		</g>
	</g>
	<g>
		<g>
			<g>
				<g>
					<g>
						<path class="st0" d="M1.2,160c9,0,17.7-2.9,25.4-7.4c5.7-3.4,10.9-7.8,15.5-12.7c4.8-5.1,8.8-10.7,14.2-15.2
							c6-4.9,13.5-8.7,21.4-7.2c7.2,1.4,13.4,5.7,18.5,10.8c1.7,1.7,3.3,3.6,4.9,5.4c1.2,1.3,0,0,0.5,0.5c0.4,0.5,0.9,1,1.3,1.6
							c4.3,5,9,9.6,14.3,13.5c15.6,11.5,34.9,14,52.3,5.2c5.6-2.8,10.7-6.7,15.3-10.9c5.4-5.1,9.7-11.2,15.1-16.3
							c5.3-5.1,12.2-9.8,19.7-10.1c7.1-0.3,13.9,3.3,19.2,7.7c2.9,2.4,5.5,5.1,7.9,8c0.5,0.5,0.9,1.1,1.4,1.6
							c-0.9-1,0.4,0.4,0.6,0.7c4.5,5.2,9.3,10,14.8,14.1c9,6.6,19.7,10.7,30.9,10.7c3.1,0,3.2-4.9,0-4.9c-10.6,0-20.4-4-28.8-10.4
							c-9.2-6.9-13.9-15-22.1-22.3c-9-8-20.9-12.9-32.7-8.3c-13.2,5.1-20.1,17.4-30.1,26.5c-16.5,15.1-38.1,19.2-57.4,6.9
							c-17.2-10.9-29.9-40.1-54.5-34.7c-15.6,3.4-23.5,17.9-34.4,27.8c-9.1,8.3-20.6,14.5-33.2,14.5C-2,155.1-2,160,1.2,160L1.2,160
							z"/>
					</g>
				</g>
				<g>
					<g>
						<path class="st0" d="M294.2,135.4c-11.9,0-21.2-9.7-27.9-17.5c-7.7-8.9-16.4-16.9-27.4-21.5c-18.2-7.6-36.9-2.9-51.9,9.4
							c-11,9-18.3,23.6-32.4,28.4c-14,4.7-25.8-5.9-34.3-15.7c-12.1-14.1-29.6-27.7-50.1-25.8C59,93.8,48.7,99,40.1,106.3
							C28,116.5,19.2,134.6,1.5,135.4c-3.1,0.2-3.1,5,0,4.9c12.7-0.6,22.5-9.2,30.3-18.5c8.4-10.1,18.6-19.2,31.5-22.8
							c21.5-6,40.7,8,53.3,22.7c7.3,8.4,16,16.7,27.5,18.4c12.4,1.8,23.4-6.3,31.3-15c9.2-10.1,17.9-20.3,31.1-25.1
							c8.3-3,17-3.2,25.5-0.7c12.8,3.7,23.4,13.6,31.1,22.6c8,9.3,18,18.6,31.1,18.6C297.3,140.3,297.3,135.4,294.2,135.4
							L294.2,135.4z"/>
					</g>
				</g>
			</g>
		</g>
	</g>
</g>
<g>
	<g>
		<g>
			<g>
				<g>
					<path class="st0" d="M466.5,169.4c-11.2-0.3-25.9-8.7-25.8-21.4s14.4-21.1,25.8-21.4c3.1-0.1,3.2-5,0-4.9
						c-14,0.4-30.7,10.8-30.7,26.3s16.7,25.9,30.7,26.3C469.6,174.4,469.6,169.5,466.5,169.4L466.5,169.4z"/>
				</g>
			</g>
		</g>
		<g>
			<g>
				<path class="st0" d="M466.5,174.3c18-0.3,34.1-9.6,43.3-25c1.6-2.7-2.6-5.2-4.2-2.5c-8.4,14-22.8,22.3-39.1,22.6
					C463.4,169.5,463.4,174.4,466.5,174.3L466.5,174.3z"/>
			</g>
		</g>
		<g>
			<g>
				<path class="st0" d="M507.7,150.5c25.2,0,50.4,0,75.6,0c39.9,0,79.9,0,119.8,0c9.2,0,18.3,0,27.5,0c3.1,0,3.2-4.9,0-4.9
					c-25.2,0-50.4,0-75.6,0c-39.9,0-79.9,0-119.8,0c-9.2,0-18.3,0-27.5,0C504.6,145.6,504.6,150.5,507.7,150.5L507.7,150.5z"/>
			</g>
		</g>
		<g>
			<g>
				<g>
					<path class="st0" d="M466.5,126.7L466.5,126.7c1.3,0,2.5-1.1,2.4-2.4s-1.1-2.4-2.4-2.4l0,0c-1.3,0-2.5,1.1-2.4,2.4
						C464.1,125.6,465.1,126.7,466.5,126.7L466.5,126.7z"/>
				</g>
			</g>
			<g>
				<g>
					<path class="st0" d="M510.2,148.1L510.2,148.1c0-1.3-1.1-2.5-2.4-2.4s-2.4,1.1-2.4,2.4l0,0c0,1.3,1.1,2.5,2.4,2.4
						C509.1,150.5,510.2,149.5,510.2,148.1L510.2,148.1z"/>
				</g>
			</g>
			<g>
				<g>
					<path class="st0" d="M510.1,147.4L510.1,147.4c-0.3-1.2-1.8-2.1-3-1.7c-1.3,0.4-2,1.7-1.7,3l0,0c0.3,1.2,1.8,2.1,3,1.7
						C509.7,150,510.4,148.8,510.1,147.4L510.1,147.4z"/>
				</g>
			</g>
			<g>
				<g>
					<path class="st0" d="M507.7,150.5c3.1,0,3.2-4.9,0-4.9C504.6,145.6,504.6,150.5,507.7,150.5L507.7,150.5z"/>
				</g>
			</g>
			<g>
				<g>
					<path class="st0" d="M466.5,126.7L466.5,126.7c1.3,0,2.5-1.1,2.4-2.4s-1.1-2.4-2.4-2.4l0,0c-1.3,0-2.5,1.1-2.4,2.4
						C464.1,125.6,465.1,126.7,466.5,126.7L466.5,126.7z"/>
				</g>
			</g>
			<g>
				<g>
					<path class="st0" d="M466.5,126.7L466.5,126.7c1.3,0,2.5-1.1,2.4-2.4s-1.1-2.4-2.4-2.4l0,0c-1.3,0-2.5,1.1-2.4,2.4
						C464.1,125.6,465.1,126.7,466.5,126.7L466.5,126.7z"/>
				</g>
			</g>
			<g>
				<g>
					<path class="st0" d="M510.2,148.1L510.2,148.1c0-1.3-1.1-2.5-2.4-2.4s-2.4,1.1-2.4,2.4l0,0c0,1.3,1.1,2.5,2.4,2.4
						C509.1,150.5,510.2,149.4,510.2,148.1L510.2,148.1z"/>
				</g>
			</g>
			<g>
				<g>
					<path class="st0" d="M466.5,126.7c16.3,0.3,30.8,8.6,39.1,22.6c1.6,2.7,5.8,0.2,4.2-2.5c-9.2-15.4-25.3-24.7-43.3-25
						C463.4,121.8,463.4,126.7,466.5,126.7L466.5,126.7z"/>
				</g>
			</g>
			<g>
				<g>
					<path class="st0" d="M510.2,148.1L510.2,148.1c0-1.3-1.1-2.5-2.4-2.4s-2.4,1.1-2.4,2.4l0,0c0,1.3,1.1,2.5,2.4,2.4
						C509.1,150.5,510.2,149.4,510.2,148.1L510.2,148.1z"/>
				</g>
			</g>
			<g>
				<g>
					<path class="st0" d="M507.7,150.5c3.1,0,3.2-4.9,0-4.9C504.6,145.6,504.6,150.5,507.7,150.5L507.7,150.5z"/>
				</g>
			</g>
		</g>
	</g>
	<g>
		<g>
			<g>
				<g>
					<g>
						<path class="st0" d="M528.2,266.3c-7.8,30.2,0.7,62.1,22.6,84.4c2.2,2.2,5.7-1.2,3.5-3.5c-20.7-21-28.7-51.1-21.4-79.6
							C533.7,264.5,528.9,263.2,528.2,266.3L528.2,266.3z"/>
					</g>
				</g>
				<g>
					<g>
						<path class="st0" d="M635.2,373.3c16.5-4.6,30.1-13.5,42-25.5c8.7-8.7,17.5-17.5,26.2-26.2c7.1-7.1,14.3-14.3,21.4-21.4
							c35.9-35.9,71.7-71.7,107.6-107.6c10.4-10.4,20.8-20.8,31.2-31.2c2.2-2.2-1.2-5.7-3.5-3.5c-26.4,26.4-52.8,52.8-79.1,79.1
							c-25.5,25.5-51,51-76.5,76.5c-8.7,8.7-17.4,17.4-26.1,26.1c-2.9,2.9-5.8,5.9-8.8,8.8c-10.1,9.7-22.3,16.4-35.7,20.2
							C630.8,369.4,632.1,374.1,635.2,373.3L635.2,373.3z"/>
					</g>
				</g>
				<g>
					<g>
						<path class="st0" d="M740.1,37.8c-26.6,26.6-53.2,53.2-79.9,79.9c-25.4,25.4-50.9,50.9-76.3,76.3
							c-9.2,9.2-18.4,18.4-27.6,27.6c-12.9,12.9-23.2,26.8-28.2,44.7c-0.8,3,3.9,4.3,4.7,1.3c4.6-16.7,14.1-29.7,26.1-41.7
							c8.7-8.7,17.3-17.3,26-26c7-7,14.1-14.1,21.1-21.1c35.6-35.6,71.2-71.2,106.8-106.8c10.2-10.2,20.4-20.4,30.7-30.7
							C745.8,39.1,742.3,35.6,740.1,37.8L740.1,37.8z"/>
					</g>
				</g>
				<g>
					<g>
						<path class="st0" d="M633.9,368.6c-28.6,7.4-58.6-0.7-79.6-21.4c-2.2-2.2-5.7,1.2-3.5,3.5c22.3,21.9,54.1,30.4,84.4,22.6
							C638.2,372.5,636.9,367.8,633.9,368.6L633.9,368.6z"/>
					</g>
				</g>
			</g>
			<g>
				<g>
					<g>
						<path class="st0" d="M891.1,117.3c7.8-30.2-0.7-62.1-22.6-84.4c-2.2-2.2-5.7,1.2-3.5,3.5c20.7,21,28.7,51.1,21.4,79.6
							C885.6,119,890.4,120.3,891.1,117.3L891.1,117.3z"/>
					</g>
				</g>
				<g>
					<g>
						<path class="st0" d="M784.1,10.3c-16.5,4.6-30.1,13.5-42,25.5c-8.7,8.7-17.5,17.5-26.2,26.2c-7.1,7.1-14.3,14.3-21.4,21.4
							c-35.9,35.9-71.7,71.7-107.6,107.6c-10.4,10.4-20.8,20.8-31.2,31.2c-2.2,2.2,1.2,5.7,3.5,3.5c26.4-26.4,52.8-52.8,79.1-79.1
							c25.5-25.5,51-51,76.5-76.5c8.7-8.7,17.4-17.4,26.1-26.1c2.9-2.9,5.8-5.9,8.8-8.8c10.1-9.7,22.3-16.4,35.7-20.2
							C788.5,14.2,787.2,9.4,784.1,10.3L784.1,10.3z"/>
					</g>
				</g>
				<g>
					<g>
						<path class="st0" d="M679.2,345.7c26.6-26.6,53.2-53.2,79.9-79.9c25.4-25.4,50.9-50.9,76.3-76.3c9.2-9.2,18.4-18.4,27.6-27.6
							c12.9-12.9,23.2-26.8,28.2-44.7c0.8-3-3.9-4.3-4.7-1.3c-4.6,16.7-14.1,29.7-26.1,41.7c-8.7,8.7-17.3,17.3-26,26
							c-7,7-14.1,14.1-21.1,21.1C777.6,240.4,742,276,706.4,311.6c-10.2,10.2-20.4,20.4-30.7,30.7C673.5,344.5,677,348,679.2,345.7
							L679.2,345.7z"/>
					</g>
				</g>
				<g>
					<g>
						<path class="st0" d="M785.4,15C814,7.6,844,15.7,865,36.4c2.2,2.2,5.7-1.2,3.5-3.5C846.2,11,814.4,2.5,784.1,10.3
							C781.1,11.1,782.4,15.8,785.4,15L785.4,15z"/>
					</g>
				</g>
			</g>
		</g>
	</g>
</g>
<g>
	<g>
		<g>
			<g>
				<path class="st0" d="M1181.2,275.3L1181.2,275.3c-0.5,0.9-0.4,2.2,0.4,3c0.8,0.7,2,1,3,0.4l0,0c0.9-0.5,1.5-1.7,1.1-2.8
					c-0.3-1-1.2-1.8-2.4-1.8l0,0c-1.3,0-2.5,1.1-2.4,2.4s1.1,2.5,2.4,2.4l0,0c-0.4-1.5-0.8-3-1.2-4.6l0,0c1.1,1.1,2.2,2.2,3.3,3.3
					l0,0c0.6-1.1,0.3-2.7-0.9-3.3C1183.4,273.8,1181.9,274.1,1181.2,275.3z"/>
			</g>
		</g>
		<g>
			<g>
				<path class="st0" d="M1264.9,197.5c18.1-32.4,27.8-68.7,27.9-105.8c0-1.9-2.1-3-3.7-2.1c-27.9,16.2-52.1,38.4-70.3,65
					c-2.5,3.6-4.9,7.3-7.1,11.1c-2,3.3-2.2,4.3-2.3,8.2c-0.2,10.1-1.1,20.1-2.7,30.1c-3,18.4-8.5,36.2-16.1,53.2
					c-1.3,2.9,2.4,5,4.2,2.5c18.4-25.2,42-46.1,69.3-61.3c2.7-1.5,0.3-5.8-2.5-4.2c-28,15.6-52.2,37.1-71,63.1
					c1.4,0.8,2.8,1.6,4.2,2.5c7.1-15.7,12.5-32.1,15.7-49.1c1.6-8.5,2.7-17.1,3.3-25.7c0.2-2.4,0.3-4.9,0.4-7.3
					c0.1-2-0.4-4.7,0.1-6.6c0.9-3.5,4.6-7.6,6.5-10.6c18.1-27.4,42.5-50.2,70.9-66.7c-1.2-0.7-2.5-1.4-3.7-2.1
					c-0.2,36.3-9.6,71.7-27.3,103.3C1259.2,197.7,1263.4,200.2,1264.9,197.5z"/>
			</g>
		</g>
		<g>
			<g>
				<path class="st0" d="M1181.2,277.7c0.2,0.4,0.5,0.7,0.9,0.9c1.6,0.9,3.7-0.3,3.7-2.1l0,0c0-1.3-1.1-2.5-2.4-2.4l0,0
					c-1.3,0-2.5,1.1-2.4,2.4s1.1,2.5,2.4,2.4l0,0c-0.8-0.8-1.6-1.6-2.4-2.4l0,0c1.2-0.7,2.5-1.4,3.7-2.1l0,0
					c0.3,0.3,0.6,0.6,0.9,0.9l0,0c-0.7-1.1-2.2-1.6-3.3-0.9C1181,275.1,1180.5,276.6,1181.2,277.7z"/>
			</g>
		</g>
		<g>
			<g>
				<path class="st0" d="M1184.2,275.8C1184.2,275.8,1184.3,275.7,1184.2,275.8c0.5-0.9,0.5-1.8,0.1-2.6
					c-15.2-27.2-24.4-57.5-26.6-88.7c-0.3-3.9-0.4-7.7-0.5-11.6c0-3.3-0.6-4.4-2.3-7.3c-3.8-6.3-7.9-12.5-12.4-18.4
					c-8.3-11.1-17.6-21.4-27.9-30.7c-11.4-10.3-23.9-19.3-37.2-27c-1.6-0.9-3.7,0.2-3.7,2.1c0.2,36.7,9.3,74.5,28.1,106.2
					c2.1,3.6,6.3,5.1,9.8,7.3c4.2,2.7,8.3,5.5,12.2,8.4c7.8,5.8,15.2,12.1,22.1,18.9c13.2,12.9,24.5,27.5,34,43.3
					c1.6,2.7,5.8,0.2,4.2-2.5c-18.3-30.5-43.7-56.4-74.1-74.8c-4.4-2.7-6.1-6.7-8.4-11.2c-2.2-4.3-4.3-8.7-6.2-13.1
					c-3.8-8.8-6.9-17.9-9.5-27.2c-4.9-18-7.4-36.6-7.5-55.3c-1.2,0.7-2.5,1.4-3.7,2.1c24.3,14.1,45.9,32.8,62.9,55.3
					c4.1,5.5,8,11.1,11.6,16.9c0.9,1.4,2.5,3.4,3,5c0.4,1.3,0,3.3,0,4.6c0.1,3.9,0.3,7.7,0.6,11.6c1.2,14.7,3.9,29.3,8,43.4
					c4.6,15.7,11.1,30.8,19,45.1c0-0.8,0-1.6,0-2.5c0,0,0,0.1-0.1,0.1C1178.4,276,1182.6,278.5,1184.2,275.8z"/>
			</g>
		</g>
		<g>
			<g>
				<path class="st0" d="M1182.1,279c0.4,0,0.8,0,1.2,0c1.8,0,3.1-2.1,2.1-3.7c-0.5-0.8-1.3-1.2-2.1-1.3c-0.4,0-0.8,0-1.2,0
					c-1.3,0-2.5,1.1-2.4,2.4C1179.7,277.8,1180.7,279,1182.1,279c0.4,0,0.8,0,1.2,0c-0.4-0.1-0.8-0.2-1.2-0.3l0,0
					c-0.3-0.3-0.6-0.6-0.9-0.9l0,0c0.7-1.2,1.4-2.5,2.1-3.7c-0.4,0-0.8,0-1.2,0c-1.3,0-2.5,1.1-2.4,2.4
					C1179.7,277.9,1180.7,279,1182.1,279z"/>
			</g>
		</g>
		<g>
			<g>
				<path class="st0" d="M1178.8,275.3L1178.8,275.3c-1,1.6,0.2,3.7,2.1,3.7c0.4,0,0.8,0,1.2,0c1.3,0,2.5-1.1,2.4-2.4
					s-1.1-2.4-2.4-2.4c-0.4,0-0.8,0-1.2,0c-1.3,0-2.5,1.1-2.4,2.4s1.1,2.4,2.4,2.4c0.4,0,0.8,0,1.2,0c0-1.6,0-3.3,0-4.9
					c-0.4,0-0.8,0-1.2,0c0.7,1.2,1.4,2.5,2.1,3.7l0,0c0.7-1.1,0.3-2.7-0.9-3.3C1181,273.8,1179.5,274.1,1178.8,275.3z"/>
			</g>
		</g>
		<g>
			<g>
				<path class="st0" d="M1183.3,279L1183.3,279c1.9,0,3.1-2.1,2.1-3.7c-0.4-0.7-0.8-1.3-1.2-2c-0.9-1.6-3.3-1.6-4.2,0
					c-0.2,0.3-0.4,0.6-0.6,0.9c-0.7,1.1-0.3,2.7,0.9,3.3c0.6,0.3,1.1,0.7,1.7,1c1.1,0.6,2.7,0.3,3.3-0.9c0.6-1.2,0.3-2.7-0.9-3.3
					c-0.6-0.3-1.1-0.7-1.7-1c0.3,1.1,0.6,2.2,0.9,3.3c0.2-0.3,0.4-0.6,0.6-0.9c-1.4,0-2.8,0-4.2,0c0.4,0.7,0.8,1.3,1.2,2
					c0.7-1.2,1.4-2.5,2.1-3.7l0,0c-1.3,0-2.5,1.1-2.4,2.4C1180.9,277.8,1181.9,279,1183.3,279z"/>
			</g>
		</g>
		<g>
			<g>
				<path class="st0" d="M1183.3,279L1183.3,279c0.9,0,1.7-0.5,2.1-1.2c0.5-0.8,0.4-1.7,0-2.5l0,0c-0.4-0.9-1.8-1.4-2.8-1.1
					s-1.8,1.2-1.8,2.4l0,0C1180.9,277.8,1182,279,1183.3,279c1.3-0.1,2.4-1.1,2.4-2.4l0,0c-1.5,0.4-3,0.8-4.6,1.2l0,0
					c0.7-1.2,1.4-2.5,2.1-3.7l0,0c-1.3,0-2.5,1.1-2.4,2.4S1181.9,279,1183.3,279z"/>
			</g>
		</g>
		<g>
			<g>
				<path class="st0" d="M1183.4,279c59-0.9,115.9-25.9,156.1-69.2c10.9-11.8,20.5-24.9,28.6-38.8c0.9-1.6-0.3-3.7-2.1-3.7
					c-36.5,0.2-72.3,9.3-104.4,26.9c-2.8,1.5-0.3,5.7,2.5,4.2c31.3-17.1,66.2-26,101.9-26.2c-0.7-1.2-1.4-2.5-2.1-3.7
					c-28.5,48.9-76,85.2-130.9,99.2c-16.2,4.1-32.9,6.2-49.6,6.4C1180.2,274.1,1180.2,279,1183.4,279L1183.4,279z"/>
			</g>
		</g>
		<g>
			<g>
				<path class="st0" d="M1214.3,170.2c0.6-37.8-10.2-75.9-28.9-108.6c-0.9-1.6-3.3-1.6-4.2,0c-18.7,32.7-29.5,70.8-28.9,108.6
					c0.1,3.1,4.9,3.2,4.9,0c-0.6-37,9.9-74.1,28.2-106.1c-1.4,0-2.8,0-4.2,0c18.3,32,28.9,69.1,28.2,106.1
					C1209.4,173.4,1214.3,173.4,1214.3,170.2L1214.3,170.2z"/>
			</g>
		</g>
		<g>
			<g>
				<path class="st0" d="M1185.4,273.9c0-0.1,0.1-0.2,0.1-0.2c0.7-1.1,0.3-2.7-0.9-3.3c-1.2-0.6-2.6-0.3-3.3,0.9
					c0,0.1-0.1,0.2-0.1,0.2c-0.7,1.1-0.3,2.7,0.9,3.3C1183.2,275.4,1184.7,275.1,1185.4,273.9L1185.4,273.9z"/>
			</g>
		</g>
		<g>
			<g>
				<path class="st0" d="M1185.8,276.5c0-1.3,0-2.6-0.1-3.9c0-2.4-3.3-3.3-4.6-1.2c-0.6,1-1.5,2.1-1.4,3.4c0.1,1,0.9,2.1,1.4,3
					c0.6,1.1,2.2,1.6,3.3,0.9c1.1-0.7,1.6-2.2,0.9-3.3c-0.4-0.7-0.8-1.4-1.1-2.1c0,0.8,0,1.6,0,2.5c0.4-0.6,0.7-1.2,1.1-1.8
					c-1.5-0.4-3-0.8-4.6-1.2c0,1.3,0.1,2.6,0.1,3.9s1.1,2.5,2.4,2.4C1184.6,278.9,1185.8,277.9,1185.8,276.5z"/>
			</g>
		</g>
		<g>
			<g>
				<path class="st0" d="M1181.2,277.7C1181.2,277.8,1181.2,277.8,1181.2,277.7c0.5,0.9,1.8,1.5,2.8,1.1c1-0.3,1.8-1.2,1.8-2.4l0,0
					c0-1.3-1.1-2.5-2.4-2.4l0,0c-1.3,0-2.5,1.1-2.4,2.4s1.1,2.5,2.4,2.4l0,0c-0.8-0.8-1.6-1.6-2.4-2.4l0,0c1.5-0.4,3-0.8,4.6-1.2
					l0,0c-0.6-1.1-2.2-1.6-3.3-0.9C1180.9,275.1,1180.5,276.6,1181.2,277.7z"/>
			</g>
		</g>
		<g>
			<g>
				<path class="st0" d="M1183.3,279c2.8-0.1,4.3-5.1,5.4-7.1c2.1-4,4.1-8.1,6-12.2c1.3-2.9-2.4-5-4.2-2.5c-2.3,3.1-4.4,6.3-6.5,9.6
					c-0.9,1.4-2.2,2.9-2.7,4.4c-0.6,1.6-0.4,3.6-0.4,5.3c0,3.1,4.9,3.1,4.9,0c0.1-6.1,5.5-12,9-16.9c-1.4-0.8-2.8-1.6-4.2-2.5
					c-2.8,6.2-6,12.2-9.3,18.1c0.7-0.4,1.4-0.8,2.1-1.2l0,0C1180.2,274.1,1180.2,279,1183.3,279z"/>
			</g>
		</g>
		<g>
			<g>
				<path class="st0" d="M1107.1,197.2c-1.4-2.5-6.6-4.2-9.1-5.5c-4.5-2.3-9-4.5-13.7-6.5c-8.8-3.8-17.7-7.1-26.9-9.7
					c-19.3-5.5-39.2-8.2-59.3-8.2c-1.9,0-3,2.1-2.1,3.7c30.2,51.7,81.2,89.7,139.7,102.8c8.3,1.9,16.7,3.2,25.2,4.1
					c4.6,0.5,9.2,0.8,13.7,1c3.5,0.1,6.9,1.2,8.9-2.1c1.6-2.7-2.6-5.2-4.2-2.5c-0.2,0.3-0.4,0.7-0.6,1c0.7-0.4,1.4-0.8,2.1-1.2
					c-57.6-0.8-112.9-25.1-152.2-67.3c-10.9-11.7-20.3-24.5-28.4-38.3c-0.7,1.2-1.4,2.5-2.1,3.7c18.8,0.1,37.4,2.5,55.5,7.4
					c8.5,2.3,16.8,5.1,24.9,8.5c4.5,1.8,8.9,3.9,13.2,6c2,1,4,2,6,3.1c0.9,0.5,4.7,1.9,5.1,2.6
					C1104.4,202.4,1108.7,199.9,1107.1,197.2L1107.1,197.2z"/>
			</g>
		</g>
	</g>
	<path class="st1" d="M1243.6,64.6L1243.6,64.6c-0.1-0.1-0.1-0.1-0.2-0.2c0,0-0.1,0-0.1-0.1h-0.1h-0.1h-0.1
		c-6.5,0.9-11.9,4.8-14.6,10.8l0,0c-1.8,4.6-0.9,11.6,4.2,13.9c5.1,2.2,10.9-1.8,13-6.4l0,0l0,0
		C1248.2,76.6,1247.4,69.9,1243.6,64.6z"/>
	<path class="st1" d="M1139.6,75.1L1139.6,75.1c-2.7-5.9-8.1-9.9-14.6-10.8h-0.1h-0.1h-0.1c0,0-0.1,0-0.1,0.1l-0.1,0.1
		c0,0,0,0-0.1,0.1c-3.8,5.3-4.5,12-2.1,18l0,0l0,0c2.1,4.5,7.9,8.6,13,6.4C1140.5,86.8,1141.5,79.8,1139.6,75.1z"/>
	<path class="st1" d="M1338,118.4C1338,118.4,1338,118.3,1338,118.4c-0.1-0.1-0.1-0.2-0.1-0.2s0-0.1-0.1-0.1l-0.1-0.1
		c0,0-0.1,0-0.1-0.1c0,0,0,0-0.1,0c-6.3-1.7-12.8-0.2-17.6,4.2l0,0c-3.5,3.6-5.4,10.4-1.5,14.4c3.8,4,10.7,2.5,14.5-0.8l0,0l0,0
		C1337.5,131.2,1339.4,124.8,1338,118.4z"/>
	<path class="st1" d="M1046.9,122.1L1046.9,122.1L1046.9,122.1c-4.8-4.4-11.3-6-17.6-4.2h-0.1c0,0-0.1,0-0.1,0.1l-0.1,0.1l-0.1,0.1
		c0,0,0,0.1-0.1,0.1c0,0,0,0,0,0.1c-1.4,6.4,0.5,12.8,5.1,17.4l0,0l0,0c3.7,3.3,10.6,4.8,14.5,0.8
		C1052.3,132.5,1050.4,125.7,1046.9,122.1z"/>
</g>
</svg>
