<?xml version="1.0" encoding="utf-8"?>
<!-- Generator: Adobe Illustrator 22.1.0, SVG Export Plug-In . SVG Version: 6.00 Build 0)  -->
<svg version="1.1" id="Capa_1" xmlns="http://www.w3.org/2000/svg" xmlns:xlink="http://www.w3.org/1999/xlink" x="0px" y="0px"
	 viewBox="0 0 593.2 160.6" style="enable-background:new 0 0 593.2 160.6;" xml:space="preserve">
<style type="text/css">
	.st0{fill:#19CCC7;stroke:#19CCC7;stroke-width:3;stroke-miterlimit:10;}
</style>
<g>
	<g>
		<g>
			<g>
				<g>
					<g>
						<g>
							<path class="st0" d="M4.1,157.5c9,0,17.7-2.9,25.4-7.4c5.7-3.4,10.9-7.8,15.5-12.7c4.8-5.1,8.8-10.7,14.2-15.2
								c6-4.9,13.5-8.7,21.4-7.2c7.2,1.4,13.4,5.7,18.5,10.8c1.7,1.7,3.3,3.6,4.9,5.4c1.2,1.3,0,0,0.5,0.5c0.4,0.5,0.9,1,1.3,1.6
								c4.3,5,9,9.6,14.3,13.5c15.6,11.5,34.9,14,52.3,5.2c5.6-2.8,10.7-6.7,15.3-10.9c5.4-5.1,9.7-11.2,15.1-16.3
								c5.3-5.1,12.2-9.8,19.7-10.1c7.1-0.3,13.9,3.3,19.2,7.7c2.9,2.4,5.5,5.1,7.9,8c0.5,0.5,0.9,1.1,1.4,1.6
								c-0.9-1,0.4,0.4,0.6,0.7c4.5,5.2,9.3,10,14.8,14.1c9,6.6,19.7,10.7,30.9,10.7c3.1,0,3.2-4.9,0-4.9c-10.6,0-20.4-4-28.8-10.4
								c-9.2-6.9-13.9-15-22.1-22.3c-9-8-20.9-12.9-32.7-8.3c-13.2,5.1-20.1,17.4-30.1,26.5c-16.5,15.1-38.1,19.2-57.4,6.9
								c-17.2-10.9-29.9-40.1-54.5-34.7c-15.6,3.4-23.5,17.9-34.4,27.8c-9.1,8.3-20.6,14.5-33.2,14.5C0.9,152.6,0.9,157.5,4.1,157.5
								L4.1,157.5z"/>
						</g>
					</g>
					<g>
						<g>
							<path class="st0" d="M297.1,132.9c-11.9,0-21.2-9.7-27.9-17.5c-7.7-8.9-16.4-16.9-27.4-21.5c-18.2-7.6-36.9-2.9-51.9,9.4
								c-11,9-18.3,23.6-32.4,28.4c-14,4.7-25.8-5.9-34.3-15.7c-12.1-14.1-29.6-27.7-50.1-25.8c-11.3,1.1-21.6,6.4-30.2,13.6
								C30.8,114,22,132.1,4.3,132.9c-3.1,0.2-3.1,5,0,4.9c12.7-0.6,22.5-9.2,30.3-18.5c8.4-10.1,18.6-19.2,31.5-22.8
								c21.5-6,40.7,8,53.3,22.7c7.3,8.4,16,16.7,27.5,18.4c12.4,1.8,23.4-6.3,31.3-15c9.2-10.1,17.9-20.3,31.1-25.1
								c8.3-3,17-3.2,25.5-0.7c12.8,3.7,23.4,13.6,31.1,22.6c8,9.3,18,18.6,31.1,18.6C300.2,137.8,300.2,132.9,297.1,132.9
								L297.1,132.9z"/>
						</g>
					</g>
				</g>
			</g>
		</g>
		<g>
			<g>
				<g>
					<g>
						<g>
							<path class="st0" d="M4.1,70.5c9,0,17.7-2.9,25.4-7.4c5.7-3.4,10.9-7.8,15.5-12.7c4.8-5.1,8.8-10.7,14.2-15.2
								c6-4.9,13.5-8.7,21.4-7.2c7.2,1.4,13.4,5.7,18.5,10.8c1.7,1.7,3.3,3.6,4.9,5.4c1.2,1.3,0,0,0.5,0.5c0.4,0.5,0.9,1,1.3,1.6
								c4.3,5,9,9.6,14.3,13.5c15.6,11.5,34.9,14,52.3,5.2c5.6-2.8,10.7-6.7,15.3-10.9c5.4-5.1,9.7-11.2,15.1-16.3
								c5.3-5.1,12.2-9.8,19.7-10.1c7.1-0.3,13.9,3.3,19.2,7.7c2.9,2.4,5.5,5.1,7.9,8c0.5,0.5,0.9,1.1,1.4,1.6
								c-0.9-1,0.4,0.4,0.6,0.7c4.5,5.2,9.3,10,14.8,14.1c9,6.6,19.7,10.7,30.9,10.7c3.1,0,3.2-4.9,0-4.9c-10.6,0-20.4-4-28.8-10.4
								c-9.2-6.9-13.9-15-22.1-22.3c-9-8-20.9-12.9-32.7-8.3c-13.2,5.1-20.1,17.4-30.1,26.5c-16.5,15.1-38.1,19.2-57.4,6.9
								C109,47.1,96.3,17.9,71.7,23.3c-15.6,3.4-23.5,17.9-34.4,27.8c-9.1,8.3-20.6,14.5-33.2,14.5C0.9,65.6,0.9,70.5,4.1,70.5
								L4.1,70.5z"/>
						</g>
					</g>
					<g>
						<g>
							<path class="st0" d="M297.1,45.9c-11.9,0-21.2-9.7-27.9-17.5c-7.7-8.9-16.4-16.9-27.4-21.5c-18.2-7.6-36.9-2.9-51.9,9.4
								c-11,9-18.3,23.6-32.4,28.4c-14,4.7-25.8-5.9-34.3-15.7C111.1,14.9,93.6,1.3,73.1,3.2C61.9,4.3,51.6,9.5,43,16.8
								C30.9,27,22.1,45.1,4.4,45.9c-3.1,0.2-3.1,5,0,4.9c12.7-0.6,22.5-9.2,30.3-18.5c8.4-10.1,18.6-19.2,31.5-22.8
								c21.5-6,40.7,8,53.3,22.7c7.3,8.4,16,16.7,27.5,18.4c12.4,1.8,23.4-6.3,31.3-15c9.2-10.1,17.9-20.3,31.1-25.1
								c8.3-3,17-3.2,25.5-0.7c12.8,3.7,23.4,13.6,31.1,22.6c8,9.3,18,18.6,31.1,18.6C300.2,50.8,300.2,45.9,297.1,45.9L297.1,45.9z
								"/>
						</g>
					</g>
				</g>
			</g>
		</g>
	</g>
	<g>
		<g>
			<g>
				<g>
					<g>
						<g>
							<path class="st0" d="M590.2,157.6c3.2,0,3.2-4.9,0-4.9c-12.6,0-24.1-6.2-33.2-14.5c-10.9-9.9-18.8-24.4-34.4-27.8
								c-24.6-5.4-37.3,23.8-54.5,34.7c-19.3,12.3-40.9,8.2-57.4-6.9c-10-9.1-16.9-21.4-30.1-26.5c-11.8-4.6-23.7,0.3-32.7,8.3
								c-8.2,7.3-12.9,15.4-22.1,22.3c-8.4,6.4-18.2,10.4-28.8,10.4c-3.2,0-3.1,4.9,0,4.9c11.2,0,21.9-4.1,30.9-10.7
								c5.5-4.1,10.3-8.9,14.8-14.1c0.2-0.3,1.5-1.7,0.6-0.7c0.5-0.5,0.9-1.1,1.4-1.6c2.4-2.9,5-5.6,7.9-8c5.3-4.4,12.1-8,19.2-7.7
								c7.5,0.3,14.4,5,19.7,10.1c5.4,5.1,9.7,11.2,15.1,16.3c4.6,4.2,9.7,8.1,15.3,10.9c17.4,8.8,36.7,6.3,52.3-5.2
								c5.3-3.9,10-8.5,14.3-13.5c0.4-0.6,0.9-1.1,1.3-1.6c0.5-0.5-0.7,0.8,0.5-0.5c1.6-1.8,3.2-3.7,4.9-5.4
								c5.1-5.1,11.3-9.4,18.5-10.8c7.9-1.5,15.4,2.3,21.4,7.2c5.4,4.5,9.4,10.1,14.2,15.2c4.6,4.9,9.8,9.3,15.5,12.7
								C572.5,154.7,581.2,157.6,590.2,157.6L590.2,157.6z"/>
						</g>
					</g>
					<g>
						<g>
							<path class="st0" d="M297.2,133c-3.1,0-3.1,4.9,0.1,5.1c13.1,0,23.1-9.3,31.1-18.6c7.7-9,18.3-18.9,31.1-22.6
								c8.5-2.5,17.2-2.3,25.5,0.7c13.2,4.8,21.9,15,31.1,25.1c7.9,8.7,18.9,16.8,31.3,15c11.5-1.7,20.2-10,27.5-18.4
								c12.6-14.7,31.8-28.7,53.3-22.7c12.9,3.6,23.1,12.7,31.5,22.8c7.8,9.3,17.6,17.9,30.3,18.5c3.1,0.1,3.1-4.7,0-4.9
								c-17.7-0.8-26.5-18.9-38.6-29.1c-8.6-7.2-18.9-12.5-30.2-13.6c-20.5-1.9-38,11.7-50.1,25.8c-8.5,9.8-20.3,20.4-34.3,15.7
								c-14.1-4.8-21.4-19.4-32.4-28.4c-15-12.3-33.7-17-51.9-9.4c-11,4.6-19.7,12.6-27.4,21.5C318.4,123.3,309.1,133,297.2,133
								L297.2,133z"/>
						</g>
					</g>
				</g>
			</g>
		</g>
		<g>
			<g>
				<g>
					<g>
						<g>
							<path class="st0" d="M590.2,70.6c3.2,0,3.2-4.9,0-4.9c-12.6,0-24.1-6.2-33.2-14.5c-10.9-9.9-18.8-24.4-34.4-27.8
								C498,18,485.3,47.2,468.1,58.1c-19.3,12.3-40.9,8.2-57.4-6.9c-10-9.1-16.9-21.4-30.1-26.5c-11.8-4.6-23.7,0.3-32.7,8.3
								c-8.2,7.3-12.9,15.4-22.1,22.3c-8.4,6.4-18.2,10.4-28.8,10.4c-3.2,0-3.1,4.9,0,4.9c11.2,0,21.9-4.1,30.9-10.7
								c5.5-4.1,10.3-8.9,14.8-14.1c0.2-0.3,1.5-1.7,0.6-0.7c0.5-0.5,0.9-1.1,1.4-1.6c2.4-2.9,5-5.6,7.9-8c5.3-4.4,12.1-8,19.2-7.7
								c7.5,0.3,14.4,5,19.7,10.1c5.4,5.1,9.7,11.2,15.1,16.3c4.6,4.2,9.7,8.1,15.3,10.9c17.4,8.8,36.7,6.3,52.3-5.2
								c5.3-3.9,10-8.5,14.3-13.5c0.4-0.6,0.9-1.1,1.3-1.6c0.5-0.5-0.7,0.8,0.5-0.5c1.6-1.8,3.2-3.7,4.9-5.4
								c5.1-5.1,11.3-9.4,18.5-10.8c7.9-1.5,15.4,2.3,21.4,7.2c5.4,4.5,9.4,10.1,14.2,15.2c4.6,4.9,9.8,9.3,15.5,12.7
								C572.5,67.7,581.2,70.6,590.2,70.6L590.2,70.6z"/>
						</g>
					</g>
					<g>
						<g>
							<path class="st0" d="M297.2,46c-3.1,0-3.1,4.9,0,5.1c13.1,0,23.1-9.3,31.1-18.6c7.7-9,18.3-18.9,31.1-22.6
								c8.5-2.5,17.2-2.3,25.5,0.7c13.2,4.8,21.9,15,31.1,25.1c7.9,8.7,18.9,16.8,31.3,15c11.5-1.7,20.2-10,27.5-18.4
								c12.6-14.7,31.8-28.7,53.3-22.7c12.9,3.6,23.1,12.7,31.5,22.8c7.8,9.3,17.6,17.9,30.3,18.5c3.1,0.1,3.1-4.7,0-4.9
								c-17.7-0.8-26.5-18.9-38.6-29.1c-8.6-7.3-18.9-12.5-30.1-13.6c-20.5-1.9-38,11.7-50.1,25.8c-8.5,9.8-20.3,20.4-34.3,15.7
								c-14.1-4.8-21.4-19.4-32.4-28.4c-15-12.3-33.7-17-51.9-9.4c-11,4.6-19.7,12.6-27.4,21.5C318.4,36.3,309.1,46,297.2,46
								L297.2,46z"/>
						</g>
					</g>
				</g>
			</g>
		</g>
	</g>
</g>
</svg>
