<?xml version="1.0" encoding="utf-8"?>
<!-- Generator: Adobe Illustrator 22.1.0, SVG Export Plug-In . SVG Version: 6.00 Build 0)  -->
<svg version="1.1" id="Capa_1" xmlns="http://www.w3.org/2000/svg" xmlns:xlink="http://www.w3.org/1999/xlink" x="0px" y="0px"
	 viewBox="0 0 720 589" style="enable-background:new 0 0 720 589;" xml:space="preserve">
<style type="text/css">
	.st0{fill:#FFFFFF;}
	.st1{fill:#FFFFFF;stroke:#FFFFFF;stroke-width:4;stroke-miterlimit:10;}
	.st2{fill:#FFFFFF;stroke:#FFFFFF;stroke-width:5;stroke-miterlimit:10;}
	.st3{fill:#FFFFFF;stroke:#FFFFFF;stroke-width:3;stroke-miterlimit:10;}
	.st4{fill:#19CCC7;}
	.st5{fill:#FFFFFF;stroke:#FFFFFF;stroke-width:2;stroke-miterlimit:10;}
</style>
<path class="st0" d="M691.2,537.4H581.2h-15.9c-1.9,0-1.9,3,0,3h110.1h15.9C693.2,540.4,693.2,537.4,691.2,537.4"/>
<path class="st0" d="M171.7,537.4H61.6H45.7c-1.9,0-1.9,3,0,3h110.1h15.9C173.6,540.4,173.6,537.4,171.7,537.4"/>
<polygon class="st0" points="229,537.8 237.8,524.1 245.3,524.1 245.3,524.4 232.1,543.6 232.1,557.3 225.9,557.3 225.9,543.6 
	213.2,524.4 213.2,524.1 220.6,524.1 "/>
<path class="st0" d="M280.7,540.9c-0.1,8.6-5.3,17.1-17,17.1c-11.6,0-17-8.4-17-17.1c0-8.7,5.6-17.5,17-17.5
	C275.1,523.5,280.8,532.2,280.7,540.9 M252.8,541c0.1,5.4,3.1,11.3,10.9,11.3c7.8,0,10.7-5.9,10.8-11.3c0.1-5.6-3-11.8-10.8-11.8
	C255.9,529.2,252.6,535.5,252.8,541"/>
<path class="st0" d="M309.9,532.2c-2.2-2.1-5.5-3.3-8.4-3.3c-7.1,0-11.4,5.4-11.4,12.2c0,5.4,3.2,11.1,11.4,11.1
	c2.6,0,4.9-0.6,7.5-2.7v-5.9h-8.5v-5.6h14.2v14c-3.3,3.7-7.4,6-13.2,6c-12.5,0-17.5-8.2-17.5-16.9c0-9.3,5.8-17.9,17.5-17.9
	c4.4,0,8.9,1.7,12.3,5.1L309.9,532.2z"/>
<path class="st0" d="M343.3,551H326l-2.8,6.2h-6.8l14.9-33.1h6.8l14.9,33.1h-6.8L343.3,551z M334.6,531.1l-6.2,14.1h12.3
	L334.6,531.1z"/>
<g>
	<polygon class="st0" points="373.4,529.8 362.9,529.8 362.9,524.1 390.1,524.1 390.1,529.8 379.6,529.8 379.6,557.3 373.4,557.3 	
		"/>
	<path class="st0" d="M424,524.2v19c0,9.8-6,14.8-14.3,14.8c-8,0-14.7-4.8-14.7-14.8v-19h6.2v19c0,6,3.4,9.1,8.6,9.1
		c5.2,0,8.1-3.5,8.1-9.1v-19H424z"/>
	<polygon class="st0" points="436.3,524.1 436.3,551.5 453.4,551.5 453.4,557.3 430.1,557.3 430.1,524.1 	"/>
	<path class="st0" d="M484.9,524.2v19c0,9.8-6,14.8-14.3,14.8c-8,0-14.7-4.8-14.7-14.8v-19h6.2v19c0,6,3.4,9.1,8.6,9.1
		c5.2,0,8.1-3.5,8.1-9.1v-19H484.9z"/>
	<polygon class="st0" points="519.9,533.3 509.1,547.7 507.9,547.7 497.3,533.2 497.3,557.3 491.1,557.3 491.1,524.2 498.2,524.2 
		508.6,538.4 519,524.2 526.1,524.2 526.1,557.3 519.9,557.3 	"/>
</g>
<path class="st1" d="M442.2,119.1v58.6v92.9v21.7c0,1.9,3,1.9,3,0v-58.6v-92.9v-21.7C445.2,117.2,442.2,117.2,442.2,119.1"/>
<path class="st1" d="M358.8,119.1v58.6v92.9v21.7c0,1.9,3,1.9,3,0v-58.6v-92.9v-21.7C361.8,117.2,358.8,117.2,358.8,119.1"/>
<path class="st1" d="M563.2,139.2c-8-13.3-21.8-21.3-37.4-21.6c-1.9,0-1.9,3,0,3c14.5,0.3,27.3,7.7,34.8,20.1
	C561.6,142.3,564.2,140.8,563.2,139.2"/>
<path class="st1" d="M488.4,139.2c-7.2,12.9-5.8,27.2-5.8,41.4v14.6v75v22c0,1.9,3,1.9,3,0v-108c0-14.6-1.9-30.3,5.4-43.5
	C491.9,139,489.3,137.5,488.4,139.2"/>
<path class="st1" d="M569,292.3V183.5c0-15,1.8-30.7-5.8-44.3c-0.9-1.7-3.5-0.2-2.6,1.5c7.1,12.8,5.4,27.7,5.4,41.9v14.7v73.9v21.2
	C566,294.2,569,294.2,569,292.3"/>
<path class="st1" d="M491,140.7c7.5-12.4,20.3-19.8,34.8-20.1c1.9,0,1.9-3,0-3c-15.6,0.3-29.4,8.3-37.4,21.6
	C487.4,140.8,490,142.4,491,140.7"/>
<path class="st1" d="M607.9,204.2h-97.4H355.4h-35.5c-1.9,0-1.9,3,0,3h97.4h155.1h35.5C609.8,207.2,609.8,204.2,607.9,204.2"/>
<path class="st1" d="M606.4,310.3v58.6v92.9v21.7c0,1.9,3,1.9,3,0v-58.6v-92.9v-21.7C609.4,308.3,606.4,308.3,606.4,310.3"/>
<path class="st1" d="M671.1,389.4c13.3-8,21.3-21.8,21.6-37.4c0-1.9-3-1.9-3,0c-0.3,14.5-7.7,27.3-20.1,34.8
	C668,387.8,669.5,390.4,671.1,389.4"/>
<path class="st1" d="M671.1,314.6c-12.4-6.9-25.8-5.8-39.4-5.8h-23.8c-1.9,0-1.9,3,0,3h22.2c13.5,0,27.3-1.4,39.5,5.4
	C671.3,318.1,672.8,315.5,671.1,314.6"/>
<path class="st1" d="M607.9,395.2h23.8c13.7,0,27,1.1,39.4-5.8c1.7-0.9,0.2-3.5-1.5-2.6c-12.3,6.8-26,5.4-39.5,5.4h-22.2
	C605.9,392.2,605.9,395.2,607.9,395.2"/>
<path class="st1" d="M669.6,317.2c12.4,7.5,19.8,20.3,20.1,34.8c0,1.9,3,1.9,3,0c-0.3-15.6-8.3-29.4-21.6-37.4
	C669.5,313.6,668,316.2,669.6,317.2"/>
<path class="st1" d="M488.4,463.4c8,13.3,21.8,21.3,37.4,21.6c1.9,0,1.9-3,0-3c-14.5-0.3-27.3-7.7-34.8-20.1
	C490,460.2,487.4,461.7,488.4,463.4"/>
<path class="st1" d="M563.2,463.4c7.2-12.9,5.8-27.2,5.8-41.4v-14.6v-75v-22c0-1.9-3-1.9-3,0v108c0,14.6,1.9,30.3-5.4,43.6
	C559.6,463.5,562.2,465.1,563.2,463.4"/>
<path class="st1" d="M482.6,310.3V419c0,15-1.8,30.7,5.8,44.3c0.9,1.7,3.5,0.2,2.6-1.5c-7.1-12.8-5.4-27.7-5.4-41.9v-14.7v-73.9
	v-21.2C485.6,308.3,482.6,308.3,482.6,310.3"/>
<path class="st1" d="M560.6,461.8c-7.5,12.4-20.3,19.8-34.8,20.1c-1.9,0-1.9,3,0,3c15.6-0.3,29.4-8.3,37.4-21.6
	C564.2,461.7,561.6,460.2,560.6,461.8"/>
<path class="st0" d="M438.3,460.9L438.3,460.9c0.8,0,1.5-0.7,1.5-1.5c0-0.8-0.7-1.5-1.5-1.5h0c-0.8,0-1.5,0.7-1.5,1.5
	C436.8,460.2,437.4,460.9,438.3,460.9"/>
<path class="st0" d="M366.1,457.9L366.1,457.9c-0.8,0-1.5,0.7-1.5,1.5c0,0.8,0.7,1.5,1.5,1.5h0c0.8,0,1.5-0.7,1.5-1.5
	C367.5,458.6,366.9,457.9,366.1,457.9"/>
<path class="st0" d="M402.2,481.7c1.9,0,1.9-3,0-3C400.2,478.7,400.2,481.7,402.2,481.7"/>
<path class="st0" d="M402.2,481.7c1.9,0,1.9-3,0-3C400.2,478.7,400.2,481.7,402.2,481.7"/>
<path class="st1" d="M437,458.6c-7.5,12.4-20.3,19.8-34.8,20.1c-1.9,0-1.9,3,0,3c15.6-0.3,29.4-8.3,37.4-21.6
	C440.6,458.5,438,457,437,458.6"/>
<path class="st1" d="M364.8,460.2c8,13.3,21.8,21.3,37.4,21.6c1.9,0,1.9-3,0-3c-14.5-0.3-27.3-7.7-34.8-20.1
	C366.4,457,363.8,458.5,364.8,460.2"/>
<path class="st1" d="M404.2,398.2c9.7,4.3,19.9,8.1,27.8,15.6c12.3,11.8,13.1,30.3,5,44.9c-0.9,1.7,1.7,3.2,2.6,1.5
	c7.8-14.2,8.2-32.5-2.5-45.3c-8.1-9.8-20.1-14.2-31.3-19.3C404,394.8,402.4,397.4,404.2,398.2"/>
<path class="st0" d="M407.7,315c1.9,0,1.9-3,0-3C405.8,312,405.8,315,407.7,315"/>
<path class="st0" d="M407.7,315c1.9,0,1.9-3,0-3C405.8,312,405.8,315,407.7,315"/>
<path class="st1" d="M372.9,335.1c7.5-12.4,20.3-19.8,34.8-20.1c1.9,0,1.9-3,0-3c-15.6,0.3-29.4,8.3-37.4,21.6
	C369.3,335.2,371.9,336.7,372.9,335.1"/>
<path class="st1" d="M445.2,333.6c-8-13.3-21.8-21.3-37.4-21.6c-1.9,0-1.9,3,0,3c14.5,0.3,27.3,7.7,34.8,20.1
	C443.6,336.7,446.2,335.2,445.2,333.6"/>
<path class="st1" d="M405.7,395.6c-9.7-4.3-19.9-8.1-27.8-15.6c-12.3-11.8-13.1-30.3-5-44.9c0.9-1.7-1.7-3.2-2.6-1.5
	c-7.8,14.2-8.2,32.5,2.5,45.3c8.1,9.8,20.1,14.2,31.3,19.3C405.9,398.9,407.5,396.4,405.7,395.6"/>
<path class="st2" d="M50.9,227.7c-11.7-0.4-26.5-8.9-26.5-22s14.8-21.7,26.5-22c2.3-0.1,2.3-3.7,0-3.6
	c-13.7,0.4-30.1,10.5-30.1,25.7c0,15.2,16.5,25.2,30.1,25.7C53.2,231.4,53.2,227.8,50.9,227.7"/>
<path class="st2" d="M50.9,231.4c17.8-0.3,33.7-9.5,42.9-24.8c1.2-2-1.9-3.8-3.1-1.8c-8.5,14.2-23.2,22.7-39.7,23
	C48.6,227.8,48.6,231.4,50.9,231.4"/>
<path class="st2" d="M95.1,207.2h62.2h99.2h31.1c1.9,0,1.9-3,0-3h-70.5H118H95.1C93.2,204.2,93.2,207.2,95.1,207.2"/>
<path class="st2" d="M50.9,183.6c16.6,0.3,31.2,8.8,39.7,23c1.2,2,4.4,0.2,3.1-1.8c-9.2-15.3-25-24.4-42.9-24.8
	C48.6,180,48.6,183.6,50.9,183.6"/>
<path class="st2" d="M155.6,446.2c13.1,22.1,36.4,35.5,62.1,35.8c1.9,0,1.9-3,0-3c-24.6-0.3-46.9-13.2-59.5-34.3
	C157.2,443,154.6,444.5,155.6,446.2"/>
<path class="st2" d="M279.7,446.2c12.2-21.6,9.6-46.1,9.6-70v-24.9V225.5V189c0-1.9-3-1.9-3,0v92.4V371c0,24.6,3.3,51.5-9.2,73.7
	C276.2,446.3,278.7,447.9,279.7,446.2"/>
<path class="st2" d="M146,189v93.8v88.8c0,25.1-3.2,51.8,9.6,74.5c0.9,1.7,3.5,0.2,2.6-1.5c-12.1-21.5-9.2-46.7-9.2-70.4v-24.6v-125
	V189C149,187.1,146,187.1,146,189"/>
<path class="st2" d="M277.1,444.7c-12.5,21.2-34.9,34.1-59.5,34.3c-1.9,0-1.9,3,0,3c25.6-0.3,49-13.8,62.1-35.8
	C280.7,444.5,278.1,443,277.1,444.7"/>
<path class="st2" d="M279.7,56.3c-13.1-22.1-36.4-35.6-62.1-35.8c-1.9,0-1.9,3,0,3c24.6,0.3,46.9,13.2,59.5,34.3
	C278.1,59.5,280.7,58,279.7,56.3"/>
<path class="st2" d="M155.6,56.3c-12.2,21.6-9.6,46.1-9.6,70v24.9V277v36.4c0,1.9,3,1.9,3,0v-92.4v-89.6c0-24.6-3.3-51.5,9.2-73.7
	C159.1,56.2,156.5,54.6,155.6,56.3"/>
<path class="st2" d="M289.3,313.4v-93.8v-88.8c0-25.1,3.2-51.8-9.6-74.5c-0.9-1.7-3.5-0.2-2.6,1.5c12.1,21.5,9.2,46.7,9.2,70.4v24.6
	v125v35.6C286.3,315.4,289.3,315.4,289.3,313.4"/>
<path class="st2" d="M158.1,57.8c12.5-21.2,34.9-34.1,59.5-34.3c1.9,0,1.9-3,0-3c-25.6,0.3-49,13.8-62.1,35.8
	C154.6,58,157.2,59.5,158.1,57.8"/>
<path class="st3" d="M147.5,354.1c3.8,0,7.6-1.1,11-2.9c5.9-3.1,9.4-8.3,14.2-12.8c13.6-12.9,21.6,4.8,31.5,11.4
	c6.9,4.5,15.2,5.6,22.7,2.2c6-2.7,10-7.2,14.3-12c2.9-3.1,6.8-6.5,11.3-6.5c4,0,7.7,2.6,10.4,5.3c3.5,3.5,6.5,7.7,11.4,11
	c4.1,2.7,8.8,4.3,13.7,4.3c1.9,0,1.9-3,0-3c-5.9,0-11.3-2.7-15.6-6.6c-3.7-3.3-6.4-7.5-10.3-10.4c-3.7-2.7-8.4-4.3-12.9-3
	c-6.1,1.8-9.7,7-13.9,11.3c-8.6,9-20.2,11.6-30.6,4c-7.5-5.5-13-17.3-23.9-15.7c-7,1-11,7-15.5,11.7c-4.6,4.8-10.7,8.7-17.6,8.7
	C145.5,351.1,145.5,354.1,147.5,354.1"/>
<path class="st3" d="M287.8,331.7c-5.8,0-9.9-4.7-13.5-8.7c-3.6-4.1-7.6-7.8-12.7-9.9c-8-3.4-16.5-1.9-23.5,3.1
	c-5.5,3.9-8.8,10.2-14.6,13.7c-7.4,4.4-13.8-0.7-18.7-6.2c-6-6.9-13.7-12.9-23.4-12.5c-4.8,0.2-9.5,2.2-13.4,5
	c-6.8,4.9-11.2,14.7-20.4,15.5c-1.9,0.2-1.9,3.2,0,3c13.1-1.1,17.5-16.6,29.9-19.9c10.7-2.9,19.2,4.3,25.8,11.8
	c3.4,3.8,7.7,7.5,13,8c5.4,0.5,10.1-2.6,13.7-6.2c5-5,9-10.6,16-13.1c4.4-1.6,9.1-1.4,13.5,0.2c10.7,4,16,19.2,28.3,19.2
	C289.7,334.7,289.7,331.7,287.8,331.7"/>
<path class="st3" d="M147.5,294.7c3.8,0,7.6-1.1,11-2.9c5.9-3.1,9.4-8.3,14.2-12.8c13.6-12.9,21.6,4.8,31.5,11.4
	c6.9,4.5,15.2,5.6,22.7,2.2c6-2.7,10-7.2,14.3-12c2.9-3.1,6.8-6.5,11.3-6.5c4,0,7.7,2.6,10.4,5.3c3.5,3.5,6.5,7.7,11.4,11
	c4.1,2.7,8.8,4.3,13.7,4.3c1.9,0,1.9-3,0-3c-5.9,0-11.3-2.7-15.6-6.6c-3.7-3.3-6.4-7.5-10.3-10.4c-3.7-2.7-8.4-4.4-12.9-3
	c-6.1,1.8-9.7,6.9-13.9,11.3c-8.6,9-20.2,11.6-30.6,4c-7.5-5.5-13-17.3-23.9-15.7c-7,1-11,7-15.5,11.7c-4.6,4.8-10.7,8.7-17.6,8.7
	C145.5,291.7,145.5,294.7,147.5,294.7"/>
<path class="st3" d="M287.8,272.3c-5.8,0-9.9-4.7-13.5-8.7c-3.6-4.1-7.6-7.8-12.7-9.9c-8-3.4-16.5-1.9-23.5,3.1
	c-5.5,3.9-8.8,10.2-14.6,13.7c-7.4,4.4-13.8-0.7-18.7-6.2c-6-6.9-13.7-12.9-23.4-12.5c-4.8,0.2-9.5,2.2-13.4,5
	c-6.8,4.9-11.2,14.7-20.4,15.5c-1.9,0.2-1.9,3.2,0,3c13.1-1.1,17.5-16.6,29.9-19.9c10.7-2.9,19.2,4.3,25.8,11.8
	c3.4,3.8,7.7,7.5,13,8c5.4,0.5,10.1-2.6,13.7-6.2c5-5,9-10.6,16-13.1c4.4-1.6,9.1-1.4,13.5,0.2c10.7,4,16,19.2,28.3,19.2
	C289.7,275.3,289.7,272.3,287.8,272.3"/>
<line class="st4" x1="217.7" y1="186.4" x2="217.7" y2="186.4"/>
<path class="st0" d="M218.9,185.7C218.9,185.7,218.9,185.7,218.9,185.7c-0.4-0.7-1.3-0.9-2-0.5c-0.7,0.4-0.9,1.3-0.5,1.9
	c0,0,0,0,0,0c0.4,0.7,1.3,0.9,1.9,0.5C219.1,187.2,219.3,186.3,218.9,185.7"/>
<line class="st4" x1="217.7" y1="186.4" x2="217.7" y2="186.4"/>
<path class="st0" d="M217.7,187.8c1.8,0,1.8-2.8,0-2.8C215.9,185,215.9,187.8,217.7,187.8"/>
<line class="st4" x1="217.7" y1="186.4" x2="217.7" y2="186.4"/>
<path class="st0" d="M217.7,185L217.7,185c-0.7,0-1.5,0.7-1.4,1.4c0,0.8,0.6,1.4,1.4,1.4h0c0.7,0,1.5-0.7,1.4-1.4
	C219.1,185.6,218.5,185,217.7,185"/>
<line class="st4" x1="217.7" y1="186.4" x2="217.7" y2="186.4"/>
<path class="st0" d="M216.5,185.7C216.5,185.7,216.5,185.7,216.5,185.7c-0.4,0.7-0.2,1.6,0.5,2c0.7,0.4,1.6,0.2,1.9-0.5c0,0,0,0,0,0
	c0.4-0.7,0.1-1.6-0.5-1.9C217.7,184.8,216.9,185,216.5,185.7"/>
<path class="st0" d="M217.7,187.8L217.7,187.8c0.7,0,1.5-0.7,1.4-1.4c0-0.8-0.6-1.4-1.4-1.4c-0.7,0-1.5,0.7-1.4,1.4
	C216.3,187.2,216.9,187.8,217.7,187.8"/>
<path class="st0" d="M217.7,187.8c1.8,0,1.8-2.8,0-2.8C215.9,185,215.9,187.8,217.7,187.8"/>
<line class="st4" x1="217.7" y1="186.4" x2="217.7" y2="186.4"/>
<path class="st0" d="M217.7,187.8L217.7,187.8c0.7,0,1.5-0.7,1.4-1.4c0-0.8-0.6-1.4-1.4-1.4h0c-0.7,0-1.5,0.7-1.4,1.4
	C216.3,187.2,216.9,187.8,217.7,187.8"/>
<line class="st4" x1="217.7" y1="186.4" x2="217.7" y2="186.4"/>
<path class="st0" d="M217.7,187.8c1.8,0,1.8-2.8,0-2.8C215.9,185,215.9,187.8,217.7,187.8"/>
<line class="st4" x1="217.7" y1="186.4" x2="217.7" y2="186.4"/>
<path class="st0" d="M218.9,187.1C218.9,187.1,218.9,187.1,218.9,187.1c0.4-0.7,0.2-1.6-0.5-2c-0.7-0.4-1.6-0.2-1.9,0.5c0,0,0,0,0,0
	c-0.4,0.7-0.1,1.6,0.5,1.9C217.6,188,218.5,187.8,218.9,187.1"/>
<path class="st0" d="M217.7,185L217.7,185c-0.7,0-1.5,0.7-1.4,1.4c0,0.8,0.6,1.4,1.4,1.4c0.7,0,1.5-0.7,1.4-1.4
	C219.1,185.6,218.5,185,217.7,185"/>
<path class="st0" d="M217.7,187.8c1.8,0,1.8-2.8,0-2.8C215.9,185,215.9,187.8,217.7,187.8"/>
<line class="st4" x1="217.7" y1="186.4" x2="217.7" y2="186.4"/>
<path class="st0" d="M216.5,187.1C216.5,187.1,216.5,187.1,216.5,187.1c0.4,0.7,1.3,0.9,2,0.5c0.7-0.4,0.9-1.3,0.5-1.9c0,0,0,0,0,0
	c-0.4-0.7-1.3-0.9-1.9-0.5C216.3,185.5,216.1,186.4,216.5,187.1"/>
<path class="st0" d="M217.7,187.8L217.7,187.8c0.7,0,1.5-0.7,1.4-1.4c0-0.8-0.6-1.4-1.4-1.4c-0.7,0-1.5,0.7-1.4,1.4
	C216.3,187.2,216.9,187.8,217.7,187.8"/>
<line class="st4" x1="217.7" y1="186.4" x2="217.7" y2="186.4"/>
<path class="st0" d="M217.7,187.8L217.7,187.8c0.7,0,1.5-0.7,1.4-1.4c0-0.8-0.6-1.4-1.4-1.4h0c-0.7,0-1.5,0.7-1.4,1.4
	C216.3,187.2,216.9,187.8,217.7,187.8"/>
<line class="st4" x1="217.7" y1="186.4" x2="217.7" y2="186.4"/>
<path class="st0" d="M217.7,185L217.7,185c-0.7,0-1.5,0.7-1.4,1.4c0,0.8,0.6,1.4,1.4,1.4h0c0.7,0,1.5-0.7,1.4-1.4
	C219.1,185.6,218.5,185,217.7,185"/>
<line class="st4" x1="217.7" y1="186.4" x2="217.7" y2="186.4"/>
<path class="st0" d="M217.7,187.8L217.7,187.8c0.7,0,1.5-0.7,1.4-1.4c0-0.8-0.6-1.4-1.4-1.4h0c-0.7,0-1.5,0.7-1.4,1.4
	C216.3,187.2,216.9,187.8,217.7,187.8"/>
<line class="st4" x1="217.7" y1="186.4" x2="217.7" y2="186.4"/>
<path class="st0" d="M217.7,187.8L217.7,187.8c0.7,0,1.5-0.7,1.4-1.4c0-0.8-0.6-1.4-1.4-1.4h0c-0.7,0-1.5,0.7-1.4,1.4
	C216.3,187.2,216.9,187.8,217.7,187.8"/>
<path class="st0" d="M217.7,187.8L217.7,187.8c0.7,0,1.5-0.7,1.4-1.4c0-0.8-0.6-1.4-1.4-1.4c-0.7,0-1.5,0.7-1.4,1.4
	C216.3,187.2,216.9,187.8,217.7,187.8"/>
<line class="st4" x1="217.7" y1="186.4" x2="217.7" y2="186.4"/>
<path class="st0" d="M217.7,187.8L217.7,187.8c0.7,0,1.5-0.7,1.4-1.4c0-0.8-0.6-1.4-1.4-1.4h0c-0.7,0-1.5,0.7-1.4,1.4
	C216.3,187.2,216.9,187.8,217.7,187.8"/>
<line class="st4" x1="217.7" y1="186.4" x2="217.7" y2="186.4"/>
<path class="st0" d="M217.7,185L217.7,185c-0.7,0-1.5,0.7-1.4,1.4c0,0.8,0.6,1.4,1.4,1.4h0c0.7,0,1.5-0.7,1.4-1.4
	C219.1,185.6,218.5,185,217.7,185"/>
<path class="st4" d="M251,128.8c-9.8,5.6-18.3,13.8-24.4,24.3c-6.1,10.5-9,21.9-9,33.2"/>
<path class="st3" d="M250.3,127.6c-20.9,12.3-33.7,34.5-34.1,58.8c0,1.8,2.8,1.8,2.8,0c0.3-23.3,12.6-44.5,32.6-56.3
	C253.3,129.1,251.9,126.7,250.3,127.6"/>
<path class="st4" d="M217.7,186.4c9.8-5.6,18.3-13.8,24.4-24.3c6.1-10.5,9-21.9,9-33.2"/>
<path class="st3" d="M218.4,187.6c20.9-12.3,33.7-34.5,34.1-58.8c0-1.8-2.8-1.8-2.8,0c-0.3,23.3-12.6,44.5-32.6,56.3
	C215.4,186.1,216.8,188.5,218.4,187.6"/>
<path class="st4" d="M184.3,128.8c9.8,5.6,18.3,13.8,24.4,24.3c6.1,10.5,9,21.9,9,33.2"/>
<path class="st3" d="M183.6,130.1c20.1,11.8,32.3,33,32.6,56.3c0,1.8,2.9,1.8,2.8,0c-0.3-24.3-13.1-46.5-34.1-58.8
	C183.5,126.7,182,129.1,183.6,130.1"/>
<path class="st4" d="M217.7,186.4c-9.8-5.6-18.3-13.8-24.4-24.3c-6.1-10.5-9-21.9-9-33.2"/>
<path class="st3" d="M218.4,185.2c-20.1-11.8-32.3-33-32.6-56.3c0-1.8-2.9-1.8-2.8,0c0.3,24.3,13.1,46.5,34.1,58.8
	C218.5,188.5,220,186.1,218.4,185.2"/>
<path class="st4" d="M160.1,153.1c24.6,0,46.1,13.4,57.6,33.3"/>
<path class="st3" d="M160.1,154.5c23.3,0.3,44.5,12.5,56.4,32.6c0.9,1.6,3.4,0.1,2.5-1.4c-12.4-20.9-34.5-33.7-58.9-34
	C158.2,151.7,158.2,154.5,160.1,154.5"/>
<path class="st4" d="M160.1,153.1c11.5,19.9,33,33.3,57.6,33.3"/>
<path class="st3" d="M158.8,153.8c12.4,20.9,34.5,33.7,58.9,34c1.8,0,1.8-2.8,0-2.8c-23.3-0.2-44.5-12.5-56.4-32.6
	C160.4,150.8,157.9,152.3,158.8,153.8"/>
<path class="st4" d="M274.6,153.1c-24.6,0-46.1,13.4-57.6,33.3"/>
<path class="st3" d="M274.6,151.7c-24.3,0.3-46.5,13-58.9,34c-0.9,1.6,1.5,3,2.5,1.4c11.9-20.1,33.1-32.3,56.4-32.6
	C276.4,154.5,276.4,151.7,274.6,151.7"/>
<path class="st4" d="M274.6,153.1c-11.5,19.9-33,33.3-57.6,33.3"/>
<path class="st3" d="M273.3,152.4c-11.9,20.1-33.1,32.3-56.4,32.6c-1.8,0-1.8,2.9,0,2.8c24.3-0.3,46.5-13,58.9-34
	C276.7,152.3,274.3,150.8,273.3,152.4"/>
<path class="st4" d="M217.7,119.9c-5.7,9.8-8.9,21.1-8.9,33.3c0,12.1,3.2,23.5,8.9,33.3"/>
<path class="st3" d="M216.5,119.1c-11.9,21.2-11.9,46.8,0,68c0.9,1.6,3.4,0.2,2.5-1.4c-11.4-20.3-11.4-44.8,0-65.1
	C219.8,119,217.4,117.5,216.5,119.1"/>
<path class="st4" d="M217.7,186.4c5.7-9.8,8.9-21.1,8.9-33.3c0-12.1-3.2-23.5-8.9-33.3"/>
<path class="st3" d="M218.9,187.1c11.9-21.2,11.9-46.8,0-68c-0.9-1.6-3.4-0.2-2.5,1.4c11.4,20.3,11.4,44.8,0,65.1
	C215.6,187.3,218,188.7,218.9,187.1"/>
<path class="st5" d="M238.3,116.8C238.3,116.8,238.2,116.8,238.3,116.8C238.2,116.7,238.2,116.7,238.3,116.8
	c-0.1-0.1-0.1-0.1-0.1-0.1c0,0,0,0-0.1,0c0,0,0,0-0.1,0c0,0,0,0,0,0c-3.2,0.4-5.8,2.4-7.2,5.3c0,0,0,0,0,0c-0.9,2.3-0.4,5.7,2.1,6.8
	c2.5,1.1,5.3-0.9,6.4-3.1c0,0,0,0,0,0c0,0,0,0,0,0C240.5,122.7,240.1,119.4,238.3,116.8z"/>
<path class="st5" d="M204.6,121.9C204.6,121.9,204.6,121.9,204.6,121.9c-1.3-2.9-4-4.9-7.2-5.3c0,0,0,0,0,0c0,0,0,0-0.1,0
	c0,0,0,0-0.1,0c0,0,0,0-0.1,0c0,0,0,0-0.1,0c0,0,0,0,0,0c-1.9,2.6-2.2,5.9-1,8.8c0,0,0,0,0,0c0,0,0,0,0,0c1.1,2.2,3.9,4.2,6.4,3.1
	C205,127.7,205.5,124.2,204.6,121.9z"/>
<path class="st5" d="M268.9,134.3C268.9,134.3,268.9,134.3,268.9,134.3c0-0.1,0-0.1,0-0.1c0,0,0,0,0,0c0,0,0,0,0,0c0,0,0,0-0.1,0
	c0,0,0,0,0,0c-3.1-0.9-6.3-0.1-8.7,2.1c0,0,0,0,0,0c-1.7,1.7-2.6,5.1-0.7,7.1c1.9,2,5.3,1.3,7.1-0.4c0,0,0,0,0,0c0,0,0,0,0,0
	C268.6,140.6,269.6,137.5,268.9,134.3z"/>
<path class="st5" d="M175.1,136.2L175.1,136.2C175.1,136.2,175.1,136.2,175.1,136.2c-2.4-2.2-5.6-2.9-8.7-2.1c0,0,0,0,0,0
	c0,0,0,0-0.1,0c0,0,0,0,0,0c0,0,0,0,0,0c0,0,0,0,0,0.1c0,0,0,0,0,0c-0.7,3.1,0.2,6.3,2.5,8.5c0,0,0,0,0,0c0,0,0,0,0,0
	c1.8,1.6,5.2,2.4,7.1,0.4C177.7,141.3,176.8,137.9,175.1,136.2z"/>
</svg>
