<?xml version="1.0" encoding="utf-8"?>
<!-- Generator: Adobe Illustrator 22.1.0, SVG Export Plug-In . SVG Version: 6.00 Build 0)  -->
<svg version="1.1" id="Capa_1" xmlns="http://www.w3.org/2000/svg" xmlns:xlink="http://www.w3.org/1999/xlink" x="0px" y="0px"
	 viewBox="0 0 335 245" style="enable-background:new 0 0 335 245;" xml:space="preserve">
<style type="text/css">
	.st0{fill:#19CCC7;}
	.st1{fill:#11B6AF;}
</style>
<line class="st0" x1="169.3" y1="214.6" x2="169.3" y2="214.6"/>
<path class="st1" d="M172.7,212.6C172.7,212.6,172.7,212.6,172.7,212.6c-1.1-1.8-3.5-2.4-5.3-1.4c-1.8,1-2.4,3.5-1.4,5.3
	c0,0,0,0,0,0c1.1,1.8,3.5,2.4,5.3,1.4C173.1,216.9,173.7,214.4,172.7,212.6"/>
<line class="st0" x1="169.3" y1="214.6" x2="169.3" y2="214.6"/>
<path class="st1" d="M169.3,218.4c4.9,0,5-7.7,0-7.7C164.4,210.7,164.4,218.4,169.3,218.4"/>
<line class="st0" x1="169.3" y1="214.6" x2="169.3" y2="214.6"/>
<path class="st1" d="M169.3,210.7L169.3,210.7c-2,0-3.9,1.8-3.8,3.8c0.1,2.1,1.7,3.8,3.8,3.8h0c2,0,3.9-1.8,3.8-3.8
	C173.1,212.5,171.5,210.7,169.3,210.7"/>
<path class="st0" d="M169.3,214.6C169.3,214.6,169.3,214.6,169.3,214.6"/>
<path class="st1" d="M166,212.6C166,212.6,166,212.6,166,212.6c-1.1,1.8-0.4,4.2,1.4,5.3c1.8,1.1,4.2,0.4,5.3-1.4c0,0,0,0,0,0
	c1.1-1.8,0.4-4.2-1.4-5.3C169.5,210.2,167.1,210.8,166,212.6"/>
<path class="st1" d="M169.3,218.4L169.3,218.4c2,0,3.9-1.8,3.8-3.8c-0.1-2.1-1.7-3.8-3.8-3.8c-2,0-3.9,1.8-3.8,3.8
	C165.6,216.7,167.2,218.4,169.3,218.4"/>
<path class="st1" d="M169.3,218.4c4.9,0,5-7.7,0-7.7C164.4,210.7,164.4,218.4,169.3,218.4"/>
<line class="st0" x1="169.3" y1="214.6" x2="169.3" y2="214.6"/>
<path class="st1" d="M169.3,218.4L169.3,218.4c2,0,3.9-1.8,3.8-3.8c-0.1-2.1-1.7-3.8-3.8-3.8h0c-2,0-3.9,1.8-3.8,3.8
	C165.6,216.7,167.2,218.4,169.3,218.4"/>
<line class="st0" x1="169.3" y1="214.6" x2="169.3" y2="214.6"/>
<path class="st1" d="M169.3,218.4c4.9,0,5-7.7,0-7.7C164.4,210.7,164.4,218.4,169.3,218.4"/>
<line class="st0" x1="169.3" y1="214.6" x2="169.3" y2="214.6"/>
<path class="st1" d="M172.7,216.5C172.7,216.5,172.7,216.5,172.7,216.5c1.1-1.8,0.4-4.2-1.4-5.3c-1.8-1.1-4.2-0.4-5.3,1.4
	c0,0,0,0,0,0c-1.1,1.8-0.4,4.2,1.4,5.3C169.2,219,171.6,218.3,172.7,216.5"/>
<path class="st1" d="M169.3,210.7L169.3,210.7c-2,0-3.9,1.8-3.8,3.8c0.1,2.1,1.7,3.8,3.8,3.8c2,0,3.9-1.8,3.8-3.8
	C173.1,212.5,171.5,210.7,169.3,210.7"/>
<path class="st1" d="M169.3,218.4c4.9,0,5-7.7,0-7.7C164.4,210.7,164.4,218.4,169.3,218.4"/>
<path class="st0" d="M169.3,214.6C169.3,214.6,169.3,214.6,169.3,214.6"/>
<path class="st1" d="M166,216.5C166,216.5,166,216.5,166,216.5c1.1,1.8,3.5,2.4,5.3,1.4c1.8-1,2.4-3.5,1.4-5.3c0,0,0,0,0,0
	c-1.1-1.8-3.5-2.4-5.3-1.4C165.6,212.3,164.9,214.7,166,216.5"/>
<path class="st1" d="M169.3,218.4L169.3,218.4c2,0,3.9-1.8,3.8-3.8c-0.1-2.1-1.7-3.8-3.8-3.8c-2,0-3.9,1.8-3.8,3.8
	C165.6,216.7,167.2,218.4,169.3,218.4"/>
<line class="st0" x1="169.3" y1="214.6" x2="169.3" y2="214.6"/>
<path class="st1" d="M169.3,218.4L169.3,218.4c2,0,3.9-1.8,3.9-3.8c-0.1-2.1-1.7-3.8-3.8-3.8h0c-2,0-3.9,1.8-3.8,3.8
	C165.6,216.7,167.2,218.4,169.3,218.4"/>
<line class="st0" x1="169.3" y1="214.6" x2="169.3" y2="214.6"/>
<path class="st1" d="M169.3,210.7L169.3,210.7c-2,0-3.9,1.8-3.8,3.8c0.1,2.1,1.7,3.8,3.8,3.8h0c2,0,3.9-1.8,3.8-3.8
	C173.1,212.5,171.5,210.7,169.3,210.7"/>
<line class="st0" x1="169.3" y1="214.6" x2="169.3" y2="214.6"/>
<path class="st1" d="M169.3,218.4L169.3,218.4c2,0,3.9-1.8,3.9-3.8c-0.1-2.1-1.7-3.8-3.8-3.8h0c-2,0-3.9,1.8-3.8,3.8
	C165.6,216.7,167.2,218.4,169.3,218.4"/>
<line class="st0" x1="169.3" y1="214.6" x2="169.3" y2="214.6"/>
<path class="st1" d="M169.3,218.4L169.3,218.4c2,0,3.9-1.8,3.9-3.8c-0.1-2.1-1.7-3.8-3.8-3.8h0c-2,0-3.9,1.8-3.8,3.8
	C165.6,216.7,167.2,218.4,169.3,218.4"/>
<path class="st1" d="M169.3,218.4L169.3,218.4c2,0,3.9-1.8,3.8-3.8c-0.1-2.1-1.7-3.8-3.8-3.8c-2,0-3.9,1.8-3.8,3.8
	C165.6,216.7,167.2,218.4,169.3,218.4"/>
<line class="st0" x1="169.3" y1="214.6" x2="169.3" y2="214.6"/>
<path class="st1" d="M169.3,218.4L169.3,218.4c2,0,3.9-1.8,3.9-3.8c-0.1-2.1-1.7-3.8-3.8-3.8h0c-2,0-3.9,1.8-3.8,3.8
	C165.6,216.7,167.2,218.4,169.3,218.4"/>
<line class="st0" x1="169.3" y1="214.6" x2="169.3" y2="214.6"/>
<path class="st1" d="M169.3,210.7L169.3,210.7c-2,0-3.9,1.8-3.8,3.8c0.1,2.1,1.7,3.8,3.8,3.8h0c2,0,3.9-1.8,3.8-3.8
	C173.1,212.5,171.5,210.7,169.3,210.7"/>
<path class="st0" d="M259.5,58.9C233,74.2,210,96.3,193.6,124.7c-16.4,28.3-24.2,59.3-24.3,89.9"/>
<path class="st1" d="M257.6,55.6c-56.6,33.3-91.2,93.3-92.1,159c-0.1,4.9,7.6,5,7.7,0c0.8-63,34-120.3,88.3-152.3
	C265.7,59.7,261.8,53.1,257.6,55.6"/>
<path class="st0" d="M169.3,214.6c26.5-15.2,49.5-37.4,65.9-65.8c16.4-28.3,24.2-59.3,24.3-89.9"/>
<path class="st1" d="M171.3,217.9c56.6-33.3,91.2-93.3,92.1-159c0.1-4.9-7.6-5-7.7,0c-0.8,63-34,120.4-88.3,152.3
	C163.1,213.8,167,220.4,171.3,217.9"/>
<path class="st0" d="M79.2,58.9c26.5,15.2,49.5,37.4,65.9,65.8c16.4,28.3,24.2,59.3,24.3,89.9"/>
<path class="st1" d="M77.2,62.3c54.2,32,87.4,89.3,88.3,152.3c0.1,4.9,7.8,5,7.7,0c-0.8-65.7-35.5-125.6-92.1-158.9
	C76.8,53.1,72.9,59.7,77.2,62.3"/>
<path class="st0" d="M169.3,214.6c-26.5-15.2-49.5-37.4-65.9-65.8C87,120.5,79.2,89.5,79.2,58.9"/>
<path class="st1" d="M171.3,211.2C117,179.3,83.8,121.9,83,58.9c-0.1-4.9-7.8-5-7.7,0c0.8,65.7,35.5,125.6,92.1,158.9
	C171.7,220.4,175.5,213.8,171.3,211.2"/>
<path class="st0" d="M13.5,124.6c66.6,0,124.7,36.2,155.8,89.9"/>
<path class="st1" d="M13.5,128.5c63.1,0.7,120.4,33.8,152.5,88c2.5,4.3,9.2,0.4,6.6-3.9c-33.5-56.6-93.4-91.2-159.1-91.9
	C8.6,120.7,8.6,128.4,13.5,128.5"/>
<path class="st0" d="M13.5,124.6c31.1,53.8,89.2,89.9,155.8,89.9"/>
<path class="st1" d="M10.2,126.6c33.5,56.6,93.4,91.2,159.1,91.9c5,0.1,5-7.6,0-7.7c-63.1-0.7-120.4-33.8-152.5-88
	C14.3,118.4,7.7,122.3,10.2,126.6"/>
<path class="st0" d="M323.1,124.6c-66.6,0-124.7,36.2-155.8,89.9"/>
<path class="st1" d="M323.1,120.8c-65.7,0.7-125.6,35.3-159.1,91.9c-2.5,4.3,4.1,8.1,6.6,3.9c32.1-54.3,89.4-87.4,152.5-88
	C328.1,128.4,328.1,120.7,323.1,120.8"/>
<path class="st0" d="M323.1,124.6c-31.1,53.8-89.2,89.9-155.8,89.9"/>
<path class="st1" d="M319.8,122.7c-32.1,54.3-89.4,87.4-152.5,88c-4.9,0.1-5,7.7,0,7.7c65.7-0.7,125.6-35.3,159.1-91.9
	C329,122.3,322.3,118.4,319.8,122.7"/>
<path class="st0" d="M169.3,34.7c-15.3,26.5-24.1,57.2-24.1,89.9c0,32.8,8.8,63.5,24.1,89.9"/>
<path class="st1" d="M166,32.8c-32.2,57.2-32.2,126.5,0,183.7c2.4,4.3,9.1,0.4,6.6-3.9c-30.9-54.8-30.9-121.1,0-176
	C175.1,32.3,168.4,28.4,166,32.8"/>
<path class="st0" d="M169.3,214.6c15.3-26.5,24.1-57.2,24.1-89.9c0-32.8-8.8-63.5-24.1-89.9"/>
<path class="st1" d="M172.7,216.5c32.2-57.2,32.2-126.5,0-183.7c-2.4-4.3-9.1-0.4-6.6,3.9c30.9,54.8,30.9,121.1,0,176
	C163.6,216.9,170.2,220.8,172.7,216.5"/>
<path class="st1" d="M225,26.4C224.9,26.4,224.9,26.4,225,26.4c-0.1-0.1-0.2-0.2-0.2-0.2c0,0-0.1-0.1-0.1-0.1c0,0-0.1,0-0.2,0
	c-0.1,0-0.1,0-0.2,0c0,0-0.1,0-0.1,0c-8.6,1.1-15.7,6.4-19.3,14.3c0,0,0,0,0,0c-2.5,6.2-1.2,15.5,5.6,18.4
	c6.8,2.9,14.4-2.4,17.3-8.4c0,0,0,0,0,0c0,0,0,0,0,0C231,42.3,230,33.5,225,26.4z"/>
<path class="st1" d="M134,40.3C134,40.3,134,40.3,134,40.3c-3.6-7.9-10.7-13.2-19.3-14.3c0,0-0.1,0-0.1,0c-0.1,0-0.1,0-0.2,0
	c-0.1,0-0.1,0-0.2,0c0,0-0.1,0-0.1,0.1c-0.1,0-0.1,0.1-0.1,0.1c0,0-0.1,0-0.1,0.1c-5,7.1-6,15.9-2.7,23.9c0,0,0,0,0,0c0,0,0,0,0,0
	c2.8,6,10.5,11.4,17.3,8.4C135.1,55.8,136.4,46.5,134,40.3z"/>
<path class="st1" d="M307.8,73.9c0,0,0-0.1,0-0.1c0-0.1,0-0.1-0.1-0.2c0,0-0.1-0.1-0.1-0.1c0,0-0.1-0.1-0.1-0.1
	c-0.1,0-0.1-0.1-0.2-0.1c0,0-0.1,0-0.1-0.1c-8.4-2.3-17-0.2-23.4,5.6c0,0,0,0,0,0c-4.7,4.7-7.1,13.8-2,19.1c5.1,5.4,14.2,3.4,19.2-1
	c0,0,0,0,0,0c0,0,0,0,0,0C307.1,90.9,309.6,82.3,307.8,73.9z"/>
<path class="st1" d="M54.1,78.8L54.1,78.8C54.1,78.8,54.1,78.8,54.1,78.8c-6.4-5.9-15-7.9-23.4-5.6c0,0-0.1,0-0.1,0.1
	c-0.1,0-0.1,0-0.2,0.1c0,0-0.1,0.1-0.1,0.1c0,0-0.1,0.1-0.1,0.1c0,0.1-0.1,0.1-0.1,0.2c0,0,0,0.1,0,0.1c-1.9,8.5,0.6,17,6.8,23.1
	c0,0,0,0,0,0c0,0,0,0,0,0c5,4.4,14.1,6.4,19.2,1C61.2,92.6,58.7,83.6,54.1,78.8z"/>
</svg>
